<svg xmlns="http://www.w3.org/2000/svg" viewBox="0 0 552.09 552.09"><defs><style>.cls-1,.cls-5,.cls-6{fill:#fff;}.cls-1{stroke:#1a8643;stroke-width:8px;}.cls-1,.cls-3,.cls-5{stroke-miterlimit:10;}.cls-2{opacity:0.7;}.cls-3{fill:#ccc;stroke:#b3b3b3;opacity:0.5;}.cls-3,.cls-7{stroke-width:4px;}.cls-4{fill:#198643;}.cls-5,.cls-6,.cls-7{stroke:#fff;}.cls-7{fill:none;}</style></defs><title>Recurso 1</title><g id="Capa_2" data-name="Capa 2"><g id="Capa_1-2" data-name="Capa 1"><rect class="cls-1" x="4" y="4" width="544.09" height="544.09" rx="51.63" ry="51.63"/><g class="cls-2"><rect class="cls-3" x="58.38" y="56.04" width="97.09" height="97.09" rx="12" ry="12"/><rect class="cls-3" x="171.12" y="56.04" width="97.09" height="97.09" rx="12" ry="12"/><rect class="cls-3" x="283.87" y="56.04" width="97.09" height="97.09" rx="12" ry="12"/><rect class="cls-3" x="396.62" y="56.04" width="97.09" height="97.09" rx="12" ry="12"/><rect class="cls-3" x="58.38" y="170.7" width="97.09" height="97.09" rx="12" ry="12"/><rect class="cls-3" x="171.12" y="170.7" width="97.09" height="97.09" rx="12" ry="12"/><rect class="cls-3" x="283.87" y="170.7" width="97.09" height="97.09" rx="12" ry="12"/><rect class="cls-3" x="396.62" y="170.7" width="97.09" height="97.09" rx="12" ry="12"/><rect class="cls-3" x="58.38" y="284.83" width="97.09" height="97.09" rx="12" ry="12"/><rect class="cls-3" x="171.12" y="284.83" width="97.09" height="97.09" rx="12" ry="12"/><rect class="cls-3" x="283.87" y="284.83" width="97.09" height="97.09" rx="12" ry="12"/><rect class="cls-3" x="396.62" y="284.83" width="97.09" height="97.09" rx="12" ry="12"/><rect class="cls-3" x="58.38" y="398.95" width="97.09" height="97.09" rx="12" ry="12"/><rect class="cls-3" x="171.12" y="398.95" width="97.09" height="97.09" rx="12" ry="12"/><rect class="cls-3" x="283.87" y="398.95" width="97.09" height="97.09" rx="12" ry="12"/><rect class="cls-3" x="396.62" y="398.95" width="97.09" height="97.09" rx="12" ry="12"/></g><polygon class="cls-4" points="456.87 377.83 46.51 401.15 40.16 178.95 447.77 152.93 456.87 377.83"/><path class="cls-5" d="M165.87,241.81a26.41,26.41,0,0,1-2.1,11.31,39.44,39.44,0,0,1-6,9.68,40.43,40.43,0,0,1-8.43,7.6,41.93,41.93,0,0,1-9.78,5,26.32,26.32,0,0,1,5.33,3,31.67,31.67,0,0,1,5.2,4.68,23.05,23.05,0,0,1,4,6.47,23.61,23.61,0,0,1,1.71,8.51,23.2,23.2,0,0,1-3,12.13,37.82,37.82,0,0,1-8.65,10.31,62.83,62.83,0,0,1-12.9,8.29,106.85,106.85,0,0,1-15.59,6.14,128.49,128.49,0,0,1-16.81,4,123,123,0,0,1-16.58,1.66A87.89,87.89,0,0,1,68.88,340a443.64,443.64,0,0,0,13.27-56.23q4.74-28.26,9-56.9,10.05-2,20.9-3.68a182.69,182.69,0,0,1,22.51-2,60.25,60.25,0,0,1,10.33.66,30.75,30.75,0,0,1,10,3.2,23.52,23.52,0,0,1,7.67,6.44A17.19,17.19,0,0,1,165.87,241.81Z"/><path class="cls-6" d="M157.74,333.67q3.66-13.2,7.06-25.75,1.29-5.25,2.79-11t2.78-11.32q1.27-5.57,2.36-10.76t1.68-9.48l8.64-.62c2.49-.19,5-.37,7.63-.54s4.9-.34,6.91-.52q2.08,7.1,3.71,13.55Q202.1,280,203,283t1.68,5.76q.79,2.76,1.6,5.3c.52,1.69,1.05,3.17,1.57,4.46.34-1.31.73-2.82,1.16-4.54s.91-3.52,1.44-5.43,1.06-3.85,1.63-5.85,1.12-3.94,1.64-5.81q2-6.57,4.09-13.69l17.55-1.89q-4.51,14.07-7.9,26.61-1.58,5.44-3.08,11t-2.8,10.68q-1.29,5.15-2.18,9.49c-.59,2.9-1,5.34-1.38,7.34-.29,0-1.41.18-3.37.51s-4.22.72-6.75,1.17-5.08.9-7.61,1.38-4.43.85-5.67,1.14q-1.23-7.5-2.57-14.24-.53-2.86-1.18-5.91c-.45-2-.86-4-1.25-5.82s-.78-3.59-1.16-5.22-.74-3-1.06-4.11c-.25,1.13-.6,2.5-1,4.12s-.87,3.36-1.3,5.2-.85,3.74-1.28,5.7-.9,3.88-1.42,5.76q-1.69,6.65-3.65,13.85Z"/><path class="cls-6" d="M321.46,298.23a68,68,0,0,1-13.85,19.22,58.13,58.13,0,0,1-17.77,11.82,51.38,51.38,0,0,1-18.25,4.24,34.55,34.55,0,0,1-12.82-2,27.79,27.79,0,0,1-10.7-6.91,34.13,34.13,0,0,1-7.31-11.92,51.81,51.81,0,0,1-3-17q-.56-19.18,5.73-33.65a76.39,76.39,0,0,1,16.24-24.27A69.58,69.58,0,0,1,281.19,223a59.73,59.73,0,0,1,21.67-5.24,34.68,34.68,0,0,1,12.64,1.73,24.71,24.71,0,0,1,8.93,5.32,20.9,20.9,0,0,1,5.21,8,31.62,31.62,0,0,1,1.82,9.84l-24.68,4.57q-1.8-5.89-4.58-8.35a8.83,8.83,0,0,0-6.22-2.35q-4.53.14-9.8,5.56a60,60,0,0,0-9.74,13.9A100.45,100.45,0,0,0,269,274.5a71.91,71.91,0,0,0-3.06,19.73c.18,6.15,1.41,10.51,3.72,13.07a10.78,10.78,0,0,0,8.71,3.69,20.87,20.87,0,0,0,7.46-1.7,22.23,22.23,0,0,0,6.85-4.43,25.82,25.82,0,0,0,5-6.55,17.11,17.11,0,0,0,2-8l-19.28,2.94,3-14.82q8.47-1.14,16.59-2.26,6.86-.94,14.52-2.2t13.42-2.32Q327.1,286.84,321.46,298.23Z"/><path class="cls-6" d="M425.06,267.19a89.92,89.92,0,0,1-7.94,20.22A81.56,81.56,0,0,1,405.22,304a90.1,90.1,0,0,1-14.39,12.59,67.57,67.57,0,0,1-15.34,8.1,47.62,47.62,0,0,1-14.94,3.06,31,31,0,0,1-11-1.56,24,24,0,0,1-8.76-5.32,25.43,25.43,0,0,1-6-9.29,40.75,40.75,0,0,1-2.51-13.83,66.94,66.94,0,0,1,2.06-17.8,110.69,110.69,0,0,1,6.43-18.67A96.49,96.49,0,0,1,351,243.53a92.6,92.6,0,0,1,13.68-15.05,66.78,66.78,0,0,1,16.19-10.61,46.08,46.08,0,0,1,18.2-4.27q8.24-.24,13.72,2.38a22.46,22.46,0,0,1,8.63,7,29.41,29.41,0,0,1,4.58,9.87,49,49,0,0,1,1.6,11.07A81.6,81.6,0,0,1,425.06,267.19Zm-64.85,29.28a10,10,0,0,0,2.1,3.1,11.66,11.66,0,0,0,3.27,2.24,9,9,0,0,0,4.15.86,24.28,24.28,0,0,0,14.51-5.08,40.48,40.48,0,0,0,10.3-11.72,59.4,59.4,0,0,0,6.08-14.6,49.21,49.21,0,0,0,1.89-14,30.14,30.14,0,0,0-.38-3.9,13.78,13.78,0,0,0-1.21-3.87,7.93,7.93,0,0,0-2.65-3,7.72,7.72,0,0,0-4.71-1.14A24.28,24.28,0,0,0,382.83,248a32.34,32.34,0,0,0-8.7,6.64,44.87,44.87,0,0,0-6.61,9.2,79.84,79.84,0,0,0-4.74,10.36,51.27,51.27,0,0,0-2.73,10.22,48.77,48.77,0,0,0-.68,8.59A9.17,9.17,0,0,0,360.21,296.47Z"/><polygon class="cls-4" points="472.34 158.38 475.89 333.74 493.92 334.58 511.92 160.22 472.34 158.38"/><ellipse class="cls-4" cx="485.23" cy="364.85" rx="18.09" ry="15.82" transform="translate(108.69 841.07) rotate(-88.61)"/><polygon class="cls-7" points="445.87 369.69 56.68 391.52 50.82 186.33 437.4 162.02 445.87 369.69"/></g></g></svg>